<svg xmlns="http://www.w3.org/2000/svg" viewBox="0 0 32 32">
  <rect width="32" height="32" rx="7" fill="#0A0A0A"/>
  <defs>
    <linearGradient id="autoDataGrad" x1="0" y1="0" x2="1" y2="1">
      <stop offset="0" stop-color="#FF8A00"/>
      <stop offset="1" stop-color="#FF3D00"/>
    </linearGradient>
  </defs>
  <!-- carrocería del auto -->
  <path fill="url(#autoDataGrad)" d="M5.5 19.8c0-.9.6-1.7 1.4-1.9l1.5-3.9c.3-.9 1.1-1.5 2.1-1.6l2.7-.4 2.2-3c.5-.7 1.3-1.1 2.2-1.1h4.6c.9 0 1.7.4 2.2 1.1l2.2 3 2.7.4c1 .1 1.8.7 2.1 1.6l1.5 3.9c.8.2 1.4 1 1.4 1.9v1.7c0 1.1-.9 2-2 2h-1.7c-.4 1.4-1.7 2.4-3.2 2.4s-2.8-1-3.2-2.4h-8.6c-.4 1.4-1.7 2.4-3.2 2.4s-2.8-1-3.2-2.4H7.5c-1.1 0-2-.9-2-2v-1.7z"/>
  <!-- ventanas -->
  <rect x="8.6" y="10.4" width="7.2" height="5.4" rx="1.2" fill="#0A0A0A" opacity="0.4"/>
  <!-- ruedas -->
  <circle cx="10.8" cy="22.6" r="2.2" fill="#0A0A0A"/>
  <circle cx="21.2" cy="22.6" r="2.2" fill="#0A0A0A"/>
  <circle cx="10.8" cy="22.6" r="0.9" fill="#FF8A00" opacity="0.55"/>
  <circle cx="21.2" cy="22.6" r="0.9" fill="#FF8A00" opacity="0.55"/>
</svg>
